<svg xmlns="http://www.w3.org/2000/svg" xmlns:xlink="http://www.w3.org/1999/xlink" width="500" zoomAndPan="magnify" viewBox="0 0 375 374.999991" height="500" preserveAspectRatio="xMidYMid meet" version="1.0"><defs><g/></defs><path fill="#0a2abd" d="M 49.96875 130.164062 C 34.96875 133.144531 21.410156 142.128906 13.066406 154.613281 C -11.082031 190.75 10.730469 239.875 53.292969 245.210938 C 57.234375 245.707031 82.371094 246 120.542969 246 L 181.5 246 L 181.5 129 L 118.3125 129.070312 C 68.148438 129.125 54.0625 129.351562 49.96875 130.164062 M 187.5 187.5 L 187.5 246 L 248.457031 246 C 286.628906 246 311.765625 245.707031 315.707031 245.210938 C 348.808594 241.058594 371.636719 208.722656 364.808594 175.660156 C 360.910156 156.789062 347.484375 140.566406 329.824219 133.378906 C 319.171875 129.042969 318.375 129 250.042969 129 L 187.5 129 Z M 187.5 187.5 " fill-opacity="1" fill-rule="evenodd"/><g fill="#ffffff" fill-opacity="1"><g transform="translate(24.161366, 220.480408)"><g><path d="M 2.71875 0 L 2.71875 -27.484375 L 23.015625 -27.484375 C 23.015625 -25.222656 23.503906 -23.382812 24.484375 -21.96875 C 25.460938 -20.550781 26.695312 -19.460938 28.1875 -18.703125 C 29.675781 -17.941406 31.179688 -17.414062 32.703125 -17.125 C 34.234375 -16.832031 35.582031 -16.648438 36.75 -16.578125 C 38.0625 -16.578125 39.425781 -16.703125 40.84375 -16.953125 C 42.257812 -17.210938 43.472656 -17.738281 44.484375 -18.53125 C 45.503906 -19.332031 46.015625 -20.5 46.015625 -22.03125 C 46.015625 -23.257812 45.25 -24.273438 43.71875 -25.078125 C 42.195312 -25.878906 40.195312 -26.644531 37.71875 -27.375 C 35.25 -28.101562 32.523438 -28.882812 29.546875 -29.71875 C 26.566406 -30.550781 23.585938 -31.582031 20.609375 -32.8125 C 17.628906 -34.050781 14.898438 -35.632812 12.421875 -37.5625 C 9.953125 -39.488281 7.953125 -41.832031 6.421875 -44.59375 C 4.898438 -47.363281 4.140625 -50.742188 4.140625 -54.734375 C 4.140625 -58.804688 4.972656 -62.316406 6.640625 -65.265625 C 8.316406 -68.210938 10.484375 -70.628906 13.140625 -72.515625 C 15.796875 -74.398438 18.613281 -75.816406 21.59375 -76.765625 C 24.570312 -77.710938 27.40625 -78.1875 30.09375 -78.1875 C 34.675781 -78.1875 39.070312 -77.347656 43.28125 -75.671875 C 47.5 -74.003906 50.703125 -71.132812 52.890625 -67.0625 L 53.984375 -76.21875 L 72.734375 -76.21875 L 72.734375 -48.859375 L 53 -48.859375 C 53 -52.921875 51.632812 -56.039062 48.90625 -58.21875 C 46.175781 -60.40625 42.882812 -61.5 39.03125 -61.5 C 37.4375 -61.5 35.785156 -61.007812 34.078125 -60.03125 C 32.367188 -59.050781 31.515625 -57.613281 31.515625 -55.71875 C 31.515625 -54.125 32.296875 -52.757812 33.859375 -51.625 C 35.421875 -50.5 37.492188 -49.460938 40.078125 -48.515625 C 42.660156 -47.578125 45.476562 -46.613281 48.53125 -45.625 C 51.582031 -44.644531 54.632812 -43.5 57.6875 -42.1875 C 60.738281 -40.882812 63.554688 -39.320312 66.140625 -37.5 C 68.722656 -35.6875 70.796875 -33.472656 72.359375 -30.859375 C 73.921875 -28.242188 74.703125 -25.117188 74.703125 -21.484375 C 74.703125 -17.265625 73.828125 -13.664062 72.078125 -10.6875 C 70.335938 -7.707031 68.03125 -5.328125 65.15625 -3.546875 C 62.28125 -1.765625 59.148438 -0.457031 55.765625 0.375 C 52.390625 1.21875 49.066406 1.640625 45.796875 1.640625 C 40.273438 1.640625 35.625 0.585938 31.84375 -1.515625 C 28.0625 -3.628906 25.117188 -5.921875 23.015625 -8.390625 L 21.8125 0 Z M 2.71875 0 "/></g></g></g><g fill="#ffffff" fill-opacity="1"><g transform="translate(101.58443, 220.480408)"><g><path d="M 2.71875 -76.21875 L 38.9375 -76.21875 L 38.9375 -61.828125 L 32.171875 -61.828125 L 32.171875 -14.5 L 38.9375 -14.5 L 38.9375 0 L 2.71875 0 L 2.71875 -14.5 L 9.59375 -14.5 L 9.59375 -61.828125 L 2.71875 -61.828125 Z M 2.71875 -76.21875 "/></g></g></g><g fill="#ffffff" fill-opacity="1"><g transform="translate(143.240218, 220.480408)"><g><path d="M 1.640625 -76.21875 L 36.3125 -76.21875 L 36.3125 -62.15625 L 30.421875 -62.15625 L 30.421875 -38.609375 C 30.421875 -32.785156 30.835938 -28.328125 31.671875 -25.234375 C 32.515625 -22.148438 33.753906 -20.0625 35.390625 -18.96875 C 37.023438 -17.882812 39.003906 -17.34375 41.328125 -17.34375 C 43.578125 -17.34375 45.519531 -17.8125 47.15625 -18.75 C 48.789062 -19.695312 50.0625 -21.695312 50.96875 -24.75 C 51.882812 -27.800781 52.34375 -32.457031 52.34375 -38.71875 L 52.34375 -61.828125 L 46.453125 -61.828125 L 46.453125 -76.21875 L 78.734375 -76.21875 L 78.734375 -62.15625 L 72.84375 -62.15625 L 72.84375 -35.65625 C 72.84375 -22.71875 70.1875 -13.226562 64.875 -7.1875 C 59.570312 -1.15625 51.796875 1.859375 41.546875 1.859375 C 30.566406 1.492188 22.1875 -1.664062 16.40625 -7.625 C 10.632812 -13.59375 7.75 -22.753906 7.75 -35.109375 L 7.75 -62.046875 L 1.640625 -62.046875 Z M 1.640625 -76.21875 "/></g></g></g><g fill="#ffffff" fill-opacity="1"><g transform="translate(223.607538, 220.480408)"><g><path d="M 78.84375 -57.03125 L 78.40625 -57.03125 C 78.113281 -55.425781 77.765625 -53.644531 77.359375 -51.6875 C 76.960938 -49.726562 76.582031 -47.910156 76.21875 -46.234375 C 75.851562 -44.566406 75.53125 -43.296875 75.25 -42.421875 L 63.796875 0 L 41 0 L 28.78125 -43.515625 C 28.5 -44.453125 28.082031 -46.265625 27.53125 -48.953125 C 26.988281 -51.648438 26.644531 -54.34375 26.5 -57.03125 L 26.0625 -57.03125 L 26.0625 -14.0625 L 32.28125 -14.0625 L 32.28125 0 L 2.71875 0 L 2.71875 -14.0625 L 8.609375 -14.0625 L 8.609375 -62.15625 L 2.828125 -62.15625 L 2.828125 -76.21875 L 44.15625 -76.21875 L 55.171875 -35.4375 L 65.640625 -76.21875 L 107.1875 -76.21875 L 107.1875 -62.15625 L 101.203125 -62.15625 L 101.203125 -14.171875 L 107.1875 -14.171875 L 107.1875 0 L 72.734375 0 L 72.734375 -14.171875 L 78.84375 -14.171875 Z M 78.84375 -57.03125 "/></g></g></g></svg>